<svg width="75" height="75" viewBox="0 0 75 75" fill="none" xmlns="http://www.w3.org/2000/svg">
<g clip-path="url(#clip0)">
<path d="M71.3967 24.9281C71.3967 17.4009 65.2562 11.2771 57.7087 11.2771C56.8858 11.2771 56.0678 11.35 55.2643 11.4946C53.8421 8.32368 51.6065 5.60317 48.7414 3.57305C45.4427 1.2356 41.5556 0 37.5 0C29.8259 0 22.8532 4.56606 19.7365 11.4946C18.9328 11.35 18.1146 11.277 17.2913 11.277C9.74387 11.277 3.60339 17.4007 3.60339 24.928C3.60339 31.3644 8.09299 36.7745 14.1129 38.2075L17.936 73.692C18.0161 74.436 18.6441 75 19.3924 75H55.6077C56.3559 75 56.9841 74.436 57.064 73.692L60.8858 38.208C66.9065 36.7753 71.3967 31.3648 71.3967 24.9281ZM20.7078 72.0703L19.5144 60.9935H55.4852L54.2923 72.0703H20.7078ZM55.8008 58.0638H19.1987L17.0993 38.5777C17.1632 38.5786 17.2272 38.579 17.2912 38.579C20.5912 38.579 23.6987 37.4297 26.1718 35.3181C29.4599 37.6707 33.4351 38.9537 37.4999 38.9537C41.5647 38.9537 45.5398 37.6705 48.828 35.3181C51.3011 37.4298 54.4086 38.579 57.7086 38.579C57.7723 38.579 57.8359 38.5786 57.8993 38.5777L55.8008 58.0638ZM57.7087 35.6495C54.7667 35.6495 52.0199 34.4884 49.9741 32.3801C49.443 31.833 48.5814 31.7845 47.9926 32.2686C45.0468 34.6904 41.3203 36.0242 37.5 36.0242C33.6797 36.0242 29.9533 34.6904 27.0075 32.2686C26.4185 31.7842 25.5566 31.8328 25.026 32.3801C22.9802 34.4884 20.2333 35.6495 17.2913 35.6495C11.3592 35.6495 6.53308 30.8399 6.53308 24.9281C6.53308 19.0163 11.3592 14.2068 17.2913 14.2068C17.7731 14.2068 18.2523 14.2386 18.7261 14.3014C18.2644 15.9798 18.0311 17.7144 18.0311 19.477C18.0311 20.286 18.687 20.9418 19.4959 20.9418C20.3048 20.9418 20.9608 20.286 20.9608 19.477C20.9608 17.5181 21.2993 15.6013 21.9667 13.7802C21.9759 13.7549 21.9853 13.7295 21.9947 13.7043C21.9948 13.7041 21.9948 13.7038 21.9949 13.7036C24.3945 7.25581 30.615 2.92969 37.5 2.92969C44.3871 2.92969 50.6217 7.26885 53.0139 13.7272C53.6943 15.5643 54.0393 17.4987 54.0393 19.4769C54.0393 20.2859 54.6952 20.9417 55.5041 20.9417C56.313 20.9417 56.969 20.2859 56.969 19.4769C56.969 17.7138 56.7356 15.9795 56.2739 14.3013C56.7476 14.2384 57.2269 14.2066 57.7087 14.2066C63.6409 14.2066 68.467 19.0162 68.467 24.928C68.467 30.8398 63.6409 35.6495 57.7087 35.6495Z" fill="#A9C4B5"/>
<path d="M27.3373 43.3437C27.2915 42.536 26.6009 41.9183 25.7919 41.9641C24.984 42.01 24.3665 42.7018 24.4122 43.5095L25.0126 54.1052C25.0568 54.8846 25.7028 55.4873 26.4739 55.4873C26.5018 55.4873 26.5299 55.4865 26.558 55.4848C27.3659 55.4389 27.9835 54.7471 27.9378 53.9394L27.3373 43.3437Z" fill="#A9C4B5"/>
<path d="M49.2082 41.9641C48.4016 41.9183 47.7086 42.5361 47.6628 43.3437L47.0623 53.9394C47.0165 54.7471 47.6342 55.4389 48.4421 55.4848C48.4702 55.4864 48.4983 55.4873 48.5262 55.4873C49.2972 55.4873 49.9432 54.8846 49.9875 54.1052L50.5879 43.5095C50.6336 42.7018 50.0159 42.01 49.2082 41.9641Z" fill="#A9C4B5"/>
<path d="M37.5 41.3005C36.6911 41.3005 36.0352 41.9563 36.0352 42.7654V53.6993C36.0352 54.5083 36.6911 55.1641 37.5 55.1641C38.3089 55.1641 38.9648 54.5083 38.9648 53.6993V42.7654C38.9648 41.9563 38.3089 41.3005 37.5 41.3005Z" fill="#A9C4B5"/>
</g>
<defs>
<clipPath id="clip0">
<rect width="75" height="75" fill="white"/>
</clipPath>
</defs>
</svg>
