<svg width="89" height="89" viewBox="0 0 89 89" fill="none" xmlns="http://www.w3.org/2000/svg">
<g clip-path="url(#clip0)">
<path d="M75.6778 54.0482H12.0972C11.1373 54.0482 10.3589 54.8264 10.3589 55.7865V68.4478C10.3589 75.5551 13.9853 81.8313 19.485 85.5234H12.901C11.9411 85.5234 11.1627 86.3017 11.1627 87.2617C11.1627 88.2218 11.9411 89 12.901 89H74.874C75.8339 89 76.6123 88.2218 76.6123 87.2617C76.6123 86.3017 75.8339 85.5234 74.874 85.5234H68.2899C73.7895 81.8313 77.416 75.5551 77.416 68.4478V55.7865C77.416 54.8264 76.6376 54.0482 75.6778 54.0482ZM73.9395 68.4478C73.9395 77.8634 66.2796 85.5234 56.864 85.5234H30.9111C21.4955 85.5234 13.8356 77.8634 13.8356 68.4478V57.5248H73.9395V68.4478Z" fill="#A9C4B5"/>
<path d="M38.0287 51.5348C42.3201 51.5346 47.1121 49.3733 51.2622 45.2231C57.7031 38.7821 59.3537 30.7963 55.5693 25.5326L58.5428 22.5591L59.898 23.9142C60.2375 24.2537 60.6823 24.4234 61.1271 24.4234C61.5719 24.4234 62.0168 24.2537 62.3563 23.9142L77.0637 9.20681C79.1665 7.10401 79.1665 3.68255 77.0637 1.57958C76.0452 0.560943 74.6909 0 73.2504 0C71.8097 0 70.4554 0.560943 69.4368 1.57958L54.7294 16.2872C54.4034 16.6131 54.2202 17.0553 54.2202 17.5163C54.2202 17.9773 54.4034 18.4195 54.7294 18.7455L56.0845 20.1006L53.1089 23.076C50.7565 21.3939 47.7797 20.7419 44.5533 21.2324C40.7079 21.8172 36.8581 23.9434 33.4203 27.3812C26.4105 34.391 25.0743 43.2307 30.2434 48.4C32.3523 50.5087 35.0715 51.535 38.0287 51.5348ZM71.8951 4.03785C72.6424 3.29057 73.8583 3.29074 74.6056 4.03785C75.3529 4.78514 75.3529 6.00107 74.6056 6.74836L61.1273 20.2268L58.4168 17.5163L71.8951 4.03785ZM51.9723 26.6713C52.2485 27.4772 50.9524 31.6581 44.3247 38.2858C37.6968 44.9139 33.5147 46.2082 32.7104 45.9332C32.4342 45.1273 33.7301 40.9463 40.3578 34.3187C46.9846 27.6917 51.1645 26.3949 51.9723 26.6713ZM48.8037 42.7648C45.1454 46.4231 40.9782 48.2582 37.486 48.0372C37.4954 48.0322 37.5047 48.0273 37.5141 48.0223C40.2832 46.5555 43.4883 44.0387 46.7828 40.7441C50.0774 37.4494 52.5942 34.2443 54.061 31.4754C54.066 31.4658 54.0711 31.4565 54.076 31.4469C54.2974 34.9393 52.4621 39.1065 48.8037 42.7648ZM35.8788 29.8397C38.7469 26.9715 42.0132 25.1354 45.076 24.6697C45.5921 24.5911 46.0974 24.5524 46.5895 24.5524C46.7976 24.5524 47.0032 24.5595 47.2064 24.5732C44.1931 26.1597 40.8471 28.9127 37.8993 31.8604C34.9488 34.811 32.1931 38.1607 30.6074 41.1762C30.3785 37.68 32.2138 33.5045 35.8788 29.8397Z" fill="#A9C4B5"/>
</g>
<defs>
<clipPath id="clip0">
<rect width="89" height="89" fill="white"/>
</clipPath>
</defs>
</svg>
