<svg width="82" height="82" viewBox="0 0 82 82" fill="none" xmlns="http://www.w3.org/2000/svg">
<path d="M46.8018 12.3418C47.8861 11.0364 48.5389 9.36065 48.5389 7.53535C48.5387 3.38026 45.1568 0 41 0C36.8431 0 33.4613 3.38026 33.4613 7.53535C33.4613 9.36065 34.1141 11.0364 35.1983 12.3418C28.0325 13.5266 21.4295 16.9027 16.1911 22.1379C9.56419 28.761 5.91455 37.5669 5.91455 46.9338C5.91455 56.3007 9.56419 65.1066 16.1911 71.7297C22.8179 78.3526 31.6284 82 41 82C50.3715 82 59.182 78.3526 65.8088 71.7297C72.4358 65.1066 76.0854 56.3005 76.0854 46.9338C76.0854 37.567 72.4358 28.761 65.8088 22.1379C60.5706 16.9026 53.9677 13.5266 46.8018 12.3418ZM70.8959 48.5354H72.8424C72.4649 56.1195 69.4215 63.0143 64.6317 68.3006L63.272 66.9408C62.6464 66.3156 61.6326 66.3156 61.0069 66.9408C60.3815 67.5662 60.3815 68.5803 61.0069 69.2059L62.3652 70.5642C57.0774 75.3439 50.1838 78.3805 42.6014 78.7572V76.8295C42.6014 75.9451 41.8842 75.228 40.9998 75.228C40.1154 75.228 39.3983 75.9451 39.3983 76.8295V78.7572C31.8158 78.3805 24.9222 75.3439 19.6345 70.5642L20.9928 69.2059C21.6182 68.5805 21.6182 67.5664 20.9928 66.9408C20.3672 66.3156 19.3534 66.3156 18.7277 66.9408L17.368 68.3006C12.5782 63.0144 9.53472 56.1197 9.15723 48.5354H11.1038C11.9882 48.5354 12.7053 47.8182 12.7053 46.9338C12.7053 46.0494 11.9882 45.3322 11.1038 45.3322H9.15756C9.53504 37.748 12.5785 30.8533 17.3683 25.567L18.728 26.9268C19.0408 27.2394 19.4506 27.3958 19.8605 27.3958C20.2703 27.3958 20.6802 27.2394 20.9929 26.9268C21.6184 26.3013 21.6184 25.2872 20.9929 24.6617L19.6347 23.3034C24.9224 18.5237 31.816 15.4871 39.3984 15.1104V17.0379C39.3984 17.9223 40.1156 18.6395 41 18.6395C41.8844 18.6395 42.6016 17.9223 42.6016 17.0379V15.1104C50.184 15.4871 57.0776 18.5237 62.3653 23.3034L61.007 24.6617C60.3816 25.2871 60.3816 26.3012 61.007 26.9268C61.3198 27.2394 61.7297 27.3958 62.1395 27.3958C62.5493 27.3958 62.9592 27.2394 63.272 26.9268L64.6317 25.567C69.4215 30.8531 72.4649 37.7479 72.8424 45.3322H70.8959C70.0115 45.3322 69.2943 46.0494 69.2943 46.9338C69.2943 47.8182 70.0115 48.5354 70.8959 48.5354ZM41 3.20312C43.3906 3.20312 45.3356 5.14662 45.3356 7.53535C45.3356 9.35905 44.2018 10.9233 42.6016 11.5612V8.36848C42.6016 7.4841 41.8844 6.76692 41 6.76692C40.1156 6.76692 39.3984 7.4841 39.3984 8.36848V11.5612C37.7981 10.9233 36.6644 9.35921 36.6644 7.53535C36.6644 5.14662 38.6093 3.20312 41 3.20312Z" fill="#A9C4B5"/>
<path d="M41 21.4689C40.1156 21.4689 39.3984 22.1861 39.3984 23.0705V25.9903C34.3646 26.3678 29.6846 28.5198 26.0943 32.1366C22.1623 36.0973 19.9969 41.3523 19.9969 46.9338C19.9969 58.515 29.4189 67.937 41.0002 67.937C49.3432 67.937 56.8868 62.9627 60.2207 55.4144L62.9882 56.391C63.1645 56.4533 63.3442 56.4828 63.521 56.4828C64.1808 56.4828 64.7989 56.0718 65.0311 55.4142C65.9916 52.6954 66.4786 49.8422 66.4786 46.9339C66.4784 32.8924 55.0489 21.4689 41 21.4689ZM41 64.7337C31.1851 64.7337 23.1999 56.7486 23.1999 46.9336C23.1999 37.6854 30.3429 30.0192 39.3984 29.2051V46.9338C39.3984 47.6128 39.8267 48.2182 40.4672 48.4441L57.1894 54.3447C54.3147 60.6162 47.9884 64.7337 41 64.7337ZM62.4894 52.8182L42.6016 45.8007V24.7289C54.1399 25.5518 63.2753 35.1964 63.2753 46.9338C63.2753 48.9375 63.0114 50.9101 62.4894 52.8182Z" fill="#A9C4B5"/>
<path d="M69.835 10.4261C68.9506 10.4261 68.2334 11.1433 68.2334 12.0277C68.2334 12.9121 68.9506 13.6293 69.835 13.6293C74.7766 13.6293 78.797 17.6497 78.797 22.5911C78.797 23.4755 79.5142 24.1927 80.3985 24.1927C81.2829 24.1927 82.0001 23.4755 82.0001 22.5911C82.0001 15.8833 76.5429 10.4261 69.835 10.4261Z" fill="#A9C4B5"/>
<path d="M71.7501 22.5912C71.7501 23.4756 72.4673 24.1927 73.3517 24.1927C74.236 24.1927 74.9532 23.4756 74.9532 22.5912C74.9532 19.7689 72.6572 17.4729 69.835 17.4729C68.9506 17.4729 68.2334 18.1901 68.2334 19.0745C68.2334 19.9588 68.9506 20.676 69.835 20.676C70.891 20.676 71.7501 21.5351 71.7501 22.5912Z" fill="#A9C4B5"/>
<path d="M13.7667 12.0277C13.7667 11.1433 13.0495 10.4261 12.1651 10.4261C5.45716 10.4261 0 15.8833 0 22.5911C0 23.4755 0.71718 24.1927 1.60156 24.1927C2.48595 24.1927 3.20312 23.4755 3.20312 22.5911C3.20312 17.6495 7.22353 13.6293 12.1651 13.6293C13.0495 13.6293 13.7667 12.9121 13.7667 12.0277Z" fill="#A9C4B5"/>
<path d="M12.1651 17.4729C9.34288 17.4729 7.04688 19.7689 7.04688 22.5912C7.04688 23.4756 7.76405 24.1927 8.64844 24.1927C9.53282 24.1927 10.25 23.4756 10.25 22.5912C10.25 21.5351 11.1091 20.676 12.1651 20.676C13.0495 20.676 13.7667 19.9588 13.7667 19.0745C13.7667 18.1901 13.0495 17.4729 12.1651 17.4729Z" fill="#A9C4B5"/>
</svg>
