<svg id="Layer_1" data-name="Layer 1" xmlns="http://www.w3.org/2000/svg" viewBox="0 0 172.39 165.18"><path d="M194.69,89.67a86.35,86.35,0,0,0-26.56-12.32A184.42,184.42,0,0,0,138,71.93l6.33-10-3.58-3.51L134.1,58h0l-5.18-.31-4,3.05,5.1,10.72a183.65,183.65,0,0,0-29.51,1.79,86.43,86.43,0,0,0-27.84,9l-.2,3.34,63.61,3.82h0L194.49,93Z" transform="translate(-35.56 -26.1)" fill="#f8f8f8"/><path d="M207.94,103.73a4.37,4.37,0,0,0-4.7-4l-6.27.5c-5.26.42-9.87,3.58-13.47,7.15v-6.13a2.55,2.55,0,0,0,0-5.09H60a2.55,2.55,0,1,0,0,5.09v6.13c-3.6-3.57-8.21-6.73-13.47-7.15l-6.28-.5a4.36,4.36,0,0,0-.69,8.69l6.27.5c5.78.47,11.9,8.84,14.17,12.66v8.24c0,36.53,19.34,53.29,23.13,56.22,1.74,1.89,9,3.51,19.13,4.42,0-4-.13-7.62-.34-10.47-.44-5.75-.84-11-1.16-15,0,0-.18-2.25-3-4.23a11.69,11.69,0,0,1-4.66-8.55c-.1-1.32-.18-2.46-.25-3.43-.31-4.08-.4-5.24-.4-5.27h0l-.44-24.74s0-.88.43-.91.62.83.62.83l2,23.15s.13,1.46,1,1.4l1.07-.08-.73-24.72a.08.08,0,0,0,0,0c0-.14,0-.82.43-.87h0c.48,0,.58.66.6.8v0l2.25,23.13v0c0,.16.18,1.44.95,1.38l.32,0c.44,0,.62-.47.69-.86l-1.25-23.87s-.07-.87.47-.91h0c.55,0,.61.83.61.83l2.89,23.66c.13.4.37.86.84.83l.32,0c.83-.06.74-1.52.74-1.52l-1.54-23.19s-.12-.87.46-.91.59.83.59.83L109,142.24s.13,1.74.66,8.7a12.12,12.12,0,0,1-3.32,9.16c-2.4,2.53-2.3,4.62-2.3,4.62.29,4.08.67,9.28,1.1,15,.23,3,.72,6.88,1.33,11,4.65.31,9.76.49,15.13.49.19-2.5.35-4.89.46-7.05,0-.31,0-.71.06-1.21h0c.41-6.39-6-8.07-6-8.07.49-32.19,3.08-52.63,6.17-61.56,1.73-5,4.9-6.06,5.67-6,1,0,1.82,1.1,1.74,6.52-.06,4.84-1.67,49.81-2,59.48q0,.57,0,1.17c0,.29,0,.66,0,1.07,0,1.38-.06,3.26-.09,4.29-.06,3.06,0,7,.13,11.33,4.82-.11,9.34-.36,13.4-.73.66-4,1.19-7.74,1.47-10.65.65-6.95,1.21-13.11,1.6-17.44.29-3.13-2.69-5.66-3.57-6.32l-.23-.18c-3.57-2.69-5.67-7.79-5-15.36,1-11.14,7.79-23.42,14.63-22.78s11.18,14,10.13,25.11c-.71,7.57-3.73,12.18-7.73,14.17h0l-.06,0-.16.08c-.91.45-4.44,2.39-4.73,5.58h0c-.43,4.32-1,10.47-1.68,17.41-.26,2.72-.42,6.16-.52,9.91,7.15-.86,12.36-2.09,14.42-3.51h0s23.77-16.21,23.77-56.7v-8.24c2.27-3.82,8.38-12.19,14.16-12.66l6.28-.5A4.36,4.36,0,0,0,207.94,103.73Z" transform="translate(-35.56 -26.1)" fill="#f8f8f8"/><path d="M64.32,87.14A53.43,53.43,0,0,1,64,43.79a37.61,37.61,0,0,1,8.48-12.37c1.59-1.49,4.93-4.33,7.36-3.24,1.88.85,1.71,3.76,1.56,5.43-.42,4.92-2.53,9.85-4.49,14.32-.62,1.4,1.42,2.64,2.08,1.22A38.15,38.15,0,0,1,95.46,32c2.6-1.41,11.62-5.62,13.31-.83,1.16,3.3-.11,7.41-1.53,10.4a40.5,40.5,0,0,1-7.49,10.33,74.44,74.44,0,0,1-11,9.38c-3.9,2.79-8.07,5-12.17,7.41-.92.55-1.81,1.13-2.71,1.72a1.22,1.22,0,0,0,.94,2.21c4.43-1.25,8.38-3.75,12.21-6.25A85.52,85.52,0,0,0,98.3,57.53c5.88-5.44,11.55-12.28,13-20.37.48-2.62.67-6.22-1.09-8.43-1.33-1.67-3.52-2.16-5.56-2.16-6.39,0-12.74,4.1-17.47,8A37.87,37.87,0,0,0,76.9,47.93L79,49.15c2.3-5.31,4.76-11.27,4.54-17.18-.1-2.74-1.25-5.56-4.29-5.85S73.07,28.33,71,30.28a38.82,38.82,0,0,0-8.42,12.27C56,57,57.14,73.22,64.32,87.14Z" transform="translate(-35.56 -26.1)" fill="#f8f8f8"/><path d="M62.09,91.22a56,56,0,0,1-13.91-4.29c-3.46-1.55-7.17-3.74-9.09-7.13A5.72,5.72,0,0,1,38.72,75c.7-2,2.21-2.44,4.16-2,3.74.93,7.37,4.08,9.57,7.15A.31.31,0,0,0,53,79.9c-2-4.54-2.75-9.73-3-14.66-.23-4.61.08-9.36,2.15-13.55.11-.22-.18-.48-.35-.27-2.8,3.35-2.61,9.22-2.49,13.31a41.32,41.32,0,0,0,3.14,15.49L53,79.9c-2.42-3.37-6.24-6.5-10.32-7.53-3.34-.86-5.13,2.06-5,5.12.22,4,4.41,6.93,7.55,8.73a41,41,0,0,0,16.83,5Z" transform="translate(-35.56 -26.1)" fill="#f8f8f8"/><path d="M91.65,67.72c8-4.18,16.41-9.64,21.31-17.39.2-.3-.24-.63-.49-.37-3.18,3.2-6.08,6.62-9.49,9.59a62.71,62.71,0,0,1-11.33,8.17Z" transform="translate(-35.56 -26.1)" fill="#f8f8f8"/></svg>